<svg xmlns="http://www.w3.org/2000/svg" viewBox="0 0 512 512" width="512" height="512">
  <rect width="512" height="512" fill="#2b2b2b" rx="10%"/>
  <rect x="50" y="50" width="412" height="412" fill="#f0d9b5" rx="5%"/>
  <rect x="70" y="70" width="60" height="60" fill="#b58863"/>
  <rect x="150" y="70" width="60" height="60" fill="#f0d9b5"/>
  <rect x="230" y="70" width="60" height="60" fill="#b58863"/>
  <rect x="310" y="70" width="60" height="60" fill="#f0d9b5"/>
  <rect x="390" y="70" width="60" height="60" fill="#b58863"/>
  <rect x="70" y="150" width="60" height="60" fill="#f0d9b5"/>
  <rect x="150" y="150" width="60" height="60" fill="#b58863"/>
  <rect x="230" y="150" width="60" height="60" fill="#f0d9b5"/>
  <rect x="310" y="150" width="60" height="60" fill="#b58863"/>
  <rect x="390" y="150" width="60" height="60" fill="#f0d9b5"/>
  <rect x="70" y="230" width="60" height="60" fill="#b58863"/>
  <rect x="150" y="230" width="60" height="60" fill="#f0d9b5"/>
  <rect x="230" y="230" width="60" height="60" fill="#b58863"/>
  <rect x="310" y="230" width="60" height="60" fill="#f0d9b5"/>
  <rect x="390" y="230" width="60" height="60" fill="#b58863"/>
  <rect x="70" y="310" width="60" height="60" fill="#f0d9b5"/>
  <rect x="150" y="310" width="60" height="60" fill="#b58863"/>
  <rect x="230" y="310" width="60" height="60" fill="#f0d9b5"/>
  <rect x="310" y="310" width="60" height="60" fill="#b58863"/>
  <rect x="390" y="310" width="60" height="60" fill="#f0d9b5"/>
  <rect x="70" y="390" width="60" height="60" fill="#b58863"/>
  <rect x="150" y="390" width="60" height="60" fill="#f0d9b5"/>
  <rect x="230" y="390" width="60" height="60" fill="#b58863"/>
  <rect x="310" y="390" width="60" height="60" fill="#f0d9b5"/>
  <rect x="390" y="390" width="60" height="60" fill="#b58863"/>
  <text x="256" y="280" font-family="Arial, sans-serif" font-size="48" font-weight="bold" fill="#333" text-anchor="middle" dominant-baseline="middle">MC</text>
  <text x="256" y="320" font-family="Arial, sans-serif" font-size="24" fill="#666" text-anchor="middle" dominant-baseline="middle">Metric Chess</text>
</svg>